HIERARCHY
ROOT root
{
	OFFSET	0	13.1	24.9
	CHANNELS 6  Xposition Yposition Zposition Xrotation Yrotation Zrotation
	JOINT spine_1
	{
		OFFSET	0	9.99999	0
		CHANNELS 3  Xrotation Yrotation Zrotation
		JOINT spine_2
		{
			OFFSET	0	112	-10
			CHANNELS 3  Xrotation Yrotation Zrotation
			JOINT spine_3
			{
				OFFSET	0	206.5	19.3
				CHANNELS 3  Xrotation Yrotation Zrotation
				JOINT spine_4
				{
					OFFSET	0	110.4	14.6
					CHANNELS 3  Xrotation Yrotation Zrotation
					JOINT neck_1
					{
						OFFSET	0	71.8	-50.3
						CHANNELS 3  Xrotation Yrotation Zrotation
						JOINT neck_2
						{
							OFFSET	0	86.2	-25.8
							CHANNELS 3  Xrotation Yrotation Zrotation
							JOINT head_ee
							{
								OFFSET	0	179.8	-8.7
								CHANNELS 3  Xrotation Yrotation Zrotation
								End Site
								{
									OFFSET	1	0	0
								}
							}
						}
					}
					JOINT left_clavicle
					{
						OFFSET	-43.2	22.4	-70.8
						CHANNELS 3  Xrotation Yrotation Zrotation
						JOINT left_shoulder
						{
							OFFSET	-93.9	-5.79999	48.7
							CHANNELS 3  Xrotation Yrotation Zrotation
							JOINT left_elbow
							{
								OFFSET	-291.4	-30.8	15.2
								CHANNELS 3  Xrotation Yrotation Zrotation
								JOINT left_lowarm_twist
								{
									OFFSET	-110.7	-3.89999	13.6
									CHANNELS 3  Xrotation Yrotation Zrotation
									JOINT left_hand
									{
										OFFSET	-110.7	-3.89999	13.6
										CHANNELS 3  Xrotation Yrotation Zrotation
										JOINT left_ee
										{
											OFFSET	-80.8	-5.10001	12.1
											CHANNELS 3  Xrotation Yrotation Zrotation
											End Site
											{
												OFFSET	1	0	0
											}
										}
									}
								}
							}
						}
					}
					JOINT right_clavicle
					{
						OFFSET	43.2	22.4	-70.8
						CHANNELS 3  Xrotation Yrotation Zrotation
						JOINT right_shoulder
						{
							OFFSET	93.9	-5.79999	48.7
							CHANNELS 3  Xrotation Yrotation Zrotation
							JOINT right_elbow
							{
								OFFSET	291.4	-30.8	15.2
								CHANNELS 3  Xrotation Yrotation Zrotation
								JOINT right_lowarm_twist
								{
									OFFSET	110.7	-3.89999	13.6
									CHANNELS 3  Xrotation Yrotation Zrotation
									JOINT right_hand
									{
										OFFSET	110.7	-3.89999	13.6
										CHANNELS 3  Xrotation Yrotation Zrotation
										JOINT right_ee
										{
											OFFSET	80.8	-5.10001	12.1
											CHANNELS 3  Xrotation Yrotation Zrotation
											End Site
											{
												OFFSET	1	0	0
											}
										}
									}
								}
							}
						}
					}
				}
			}
		}
	}
	JOINT left_hip
	{
		OFFSET	-82.8	-127.5	0.300001
		CHANNELS 3  Xrotation Yrotation Zrotation
		JOINT left_knee
		{
			OFFSET	-28.2	-396.7	2.2
			CHANNELS 3  Xrotation Yrotation Zrotation
			JOINT left_ankle
			{
				OFFSET	-11.7	-411.3	35.4
				CHANNELS 3  Xrotation Yrotation Zrotation
				JOINT left_toes
				{
					OFFSET	0	-60	-88.6
					CHANNELS 3  Xrotation Yrotation Zrotation
					JOINT left_foot_ee
					{
						OFFSET	-22.5	-16.5	-42.2
						CHANNELS 3  Xrotation Yrotation Zrotation
						End Site
						{
							OFFSET	1	0	0
						}
					}
				}
			}
		}
	}
	JOINT right_hip
	{
		OFFSET	82.8	-127.5	0.300001
		CHANNELS 3  Xrotation Yrotation Zrotation
		JOINT right_knee
		{
			OFFSET	28.2	-396.7	2.2
			CHANNELS 3  Xrotation Yrotation Zrotation
			JOINT right_ankle
			{
				OFFSET	11.7	-411.3	35.4
				CHANNELS 3  Xrotation Yrotation Zrotation
				JOINT right_toes
				{
					OFFSET	0	-60	-88.6
					CHANNELS 3  Xrotation Yrotation Zrotation
					JOINT right_foot_ee
					{
						OFFSET	22.5	-16.5	-42.2
						CHANNELS 3  Xrotation Yrotation Zrotation
						End Site
						{
							OFFSET	1	0	0
						}
					}
				}
			}
		}
	}
}
MOTION
Frames: 12
Frame Time: 0.02
2877.59 770.118 -1494.91 2.57912 52.6132 -8.27476 -0.301154 0.424958 3.83082 -0.29301 0.180517 3.85006 -0.276263 -0.65185 3.79884 -0.296395 -0.0441779 3.85403 -4.0419 21.8594 1.35547 -3.50643 39.127 4.79698 -0.0 0.0 -0.0 1.1195 6.29854 2.76865 -25.2117 -36.4152 26.0138 0.828738 -22.3196 0.163493 -32.5857 -2.19936 3.47893 -7.08238 19.4668 -37.5178 -0.0 0.0 -0.0 9.20485 19.598 -17.6595 -29.2836 28.2341 -61.6104 0.837928 22.5424 -0.167 -30.2619 1.97997 -3.27725 -0.284053 -3.22525 0.524936 0.0 0.0 0.0 -8.54586 16.4647 13.6743 -1.81597 0.0705006 0.269759 1.34175 9.33589 -0.195738 7.47234 -0.0 -0.0 -0.0 0.0 -0.0 26.2982 37.8191 -9.65028 -48.2392 1.0723 -7.11057 36.8522 -16.7117 4.66545 -39.8586 0.0 0.0 0.0 0.0 0.0 
2867.4 772.131 -1492.93 3.28503 52.2073 -9.49517 -0.485926 0.432504 3.90366 -0.477469 0.183423 3.92323 -0.45971 -0.677192 3.86877 -0.480587 -0.0581844 3.92707 -4.33964 21.9512 1.6169 -3.86008 39.1746 5.19053 -0.0 0.0 -0.0 1.18204 6.13283 2.86602 -24.1236 -36.7759 23.6356 0.842025 -22.6415 0.168573 -32.5434 -2.19529 3.47534 -7.44263 20.5367 -39.3074 -0.0 0.0 -0.0 9.08867 19.4545 -17.412 -29.8493 27.9884 -61.8057 0.795224 21.5009 -0.150987 -29.8754 1.94428 -3.24286 -0.27876 -3.54383 0.354936 0.0 0.0 0.0 -10.671 16.6625 15.7747 -1.65321 0.0645317 0.245494 1.07677 9.20421 -0.157181 7.44673 -0.0 -0.0 -0.0 0.0 -0.0 28.8211 37.5071 -10.9811 -46.3121 0.916361 -6.85826 36.4678 -16.8668 4.6305 -39.7696 0.0 0.0 0.0 0.0 0.0 
2853.87 770.718 -1489.46 2.40368 51.2507 -8.41051 -0.601541 0.550709 3.93218 -0.59299 0.299578 3.9592 -0.566499 -0.578776 3.92816 -0.588023 0.0483585 3.97021 -4.41155 22.3849 2.07638 -3.9332 39.6574 5.75481 -0.0 0.0 -0.0 1.2319 5.98653 2.94263 -22.6976 -37.0374 20.6804 0.829462 -22.3372 0.163768 -32.4682 -2.18807 3.46895 -7.97777 22.2038 -41.8611 -0.0 0.0 -0.0 9.0025 19.3527 -17.2283 -30.4353 27.7927 -62.1954 0.689511 18.8583 -0.11451 -29.3217 1.89357 -3.19318 -0.324163 -4.85918 0.0968813 0.0 0.0 0.0 -12.1598 16.8729 16.1958 0.468038 -0.0195556 -0.0691612 1.65337 9.5301 -0.241025 7.41115 -0.0 -0.0 -0.0 0.0 -0.0 28.4628 37.994 -9.81857 -44.9724 0.81302 -6.67988 38.4056 -16.6601 4.8129 -38.8632 0.0 0.0 0.0 0.0 0.0 
2838.34 767.607 -1490.6 3.32118 51.0601 -9.22149 -0.784136 0.631377 4.02707 -0.775193 0.37406 4.05901 -0.742027 -0.54035 4.04027 -0.764786 0.103968 4.07486 -4.48085 22.6048 2.41804 -4.01097 39.8309 6.16423 -0.0 0.0 -0.0 1.19968 7.37088 3.01254 -21.4072 -36.8516 18.6985 0.791233 -21.4028 0.149527 -32.5093 -2.19201 3.47244 -8.64468 24.1669 -45.1421 -0.0 0.0 -0.0 8.98623 19.161 -17.2059 -30.8392 27.4584 -62.5409 0.573047 15.8478 -0.0797612 -28.6738 1.83485 -3.13442 -0.258599 -5.95031 -0.793171 0.0 0.0 0.0 -14.5856 16.663 17.4156 1.36487 -0.0586055 -0.201238 2.0624 9.94971 -0.300392 7.42909 -0.0 -0.0 -0.0 0.0 -0.0 29.3034 38.8046 -8.43946 -39.9637 0.464457 -5.9932 39.6844 -16.9751 4.93687 -38.4036 0.0 0.0 0.0 0.0 0.0 
2822.92 763.475 -1486.87 3.74109 51.8106 -10.8128 -0.889729 0.639096 4.28136 -0.879609 0.365627 4.31327 -0.844345 -0.613095 4.28515 -0.869955 0.0707018 4.32813 -4.5073 22.7449 2.64062 -4.0392 39.9338 6.4231 -0.0 0.0 -0.0 1.43511 8.12804 3.49759 -20.1798 -37.0283 17.6252 0.764834 -20.7505 0.140034 -32.5414 -2.19509 3.47517 -9.13155 25.6262 -47.4834 -0.0 0.0 -0.0 8.97908 18.9436 -17.2052 -31.0837 27.1556 -62.8526 0.49166 13.6883 -0.0590116 -28.215 1.79366 -3.09241 -0.205471 -6.74943 -1.4748 0.0 0.0 0.0 -17.1154 16.2624 18.7775 1.99161 -0.0871223 -0.293175 2.36985 10.2383 -0.344952 7.43814 -0.0 -0.0 -0.0 0.0 -0.0 31.4566 38.976 -9.0139 -35.3186 0.196108 -5.33189 40.5725 -17.1806 5.02106 -38.0692 0.0 0.0 0.0 0.0 0.0 
2810.62 761.312 -1486.78 3.62791 52.5261 -11.1888 -1.02436 0.637324 4.4083 -1.01363 0.355805 4.43983 -0.977518 -0.661477 4.40475 -1.00458 0.041755 4.45384 -3.8168 22.5405 1.5544 -3.20289 40.1855 5.01349 -0.0 0.0 -0.0 2.53778 9.16584 5.51024 -16.4829 -37.3868 14.0002 0.695095 -19.0002 0.116321 -33.1159 -2.25055 3.5237 -9.65513 27.2307 -49.9177 -0.0 0.0 -0.0 8.96757 18.7989 -17.1897 -31.1784 26.4882 -63.2893 0.431281 12.0598 -0.0455574 -27.9555 1.77053 -3.06852 -0.0688958 -7.31981 -2.6007 0.0 0.0 0.0 -17.6865 17.0443 20.2082 2.9181 -0.13112 -0.428512 2.42593 10.7715 -0.35319 7.41339 -0.0 -0.0 -0.0 0.0 -0.0 31.6321 38.0979 -10.8018 -31.0155 -0.00383099 -4.70209 41.3645 -16.7562 5.08332 -37.166 0.0 0.0 0.0 0.0 0.0 
2795.26 759.543 -1487.61 3.97041 52.9896 -11.4367 -1.14323 0.642605 4.53644 -1.13185 0.352945 4.56805 -1.09435 -0.70272 4.52754 -1.12294 0.0203586 4.58159 -3.35582 22.2438 0.877727 -2.64991 40.0303 4.094 -0.0 0.0 -0.0 3.85934 9.97321 7.85003 -12.9378 -40.0396 10.5472 0.648228 -17.8026 0.101526 -33.5187 -2.28972 3.55739 -10.3438 29.6098 -52.5258 -0.0 0.0 -0.0 8.95962 18.6961 -17.1792 -31.079 25.3775 -63.9108 0.375816 10.5461 -0.0346853 -27.7806 1.75499 -3.05234 0.145308 -7.8356 -4.20421 0.0 0.0 0.0 -18.9393 17.6128 20.1323 3.56384 -0.16308 -0.522417 2.66875 11.5791 -0.388571 7.39809 -0.0 -0.0 -0.0 0.0 -0.0 32.0903 37.6608 -11.0113 -26.0201 -0.175815 -3.95498 41.878 -16.3215 5.12002 -36.5324 0.0 0.0 0.0 0.0 0.0 
2778.4 756.211 -1487.68 4.45993 53.2689 -11.7944 -1.23031 0.634415 4.54089 -1.21891 0.34449 4.57197 -1.1818 -0.718803 4.52832 -1.2104 0.00460058 4.5849 -3.03556 22.0133 0.386133 -2.26481 39.899 3.4282 -0.0 0.0 -0.0 5.08266 10.3042 9.98734 -10.0657 -42.5514 8.72437 0.627429 -17.2659 0.0952595 -33.7953 -2.31675 3.58036 -10.8616 31.3483 -54.4095 -0.0 0.0 -0.0 8.99806 18.618 -17.2695 -30.9905 24.5647 -64.198 0.339062 9.53469 -0.0282774 -27.6268 1.74137 -3.03809 0.294891 -8.20501 -5.32511 0.0 0.0 0.0 -20.6567 17.8064 21.0291 3.73265 -0.171609 -0.546909 2.85242 12.1239 -0.415358 7.39585 -0.0 -0.0 -0.0 0.0 -0.0 32.4614 37.3321 -11.1953 -20.9141 -0.283653 -3.1791 42.1555 -16.028 5.1386 -36.0656 0.0 0.0 0.0 0.0 0.0 
2763.27 755.329 -1484.11 3.57872 53.2262 -10.8248 -1.26968 0.654366 4.52435 -1.25837 0.36545 4.55673 -1.21957 -0.697803 4.51787 -1.24804 0.0236919 4.57126 -1.69441 21.5984 -0.947587 -0.629963 39.8425 1.45572 -0.0 0.0 -0.0 6.20763 10.6172 11.9548 -7.80688 -44.5201 7.79076 0.679279 -18.5979 0.111225 -33.9888 -2.33573 3.59637 -11.3027 32.547 -56.5635 -0.0 0.0 -0.0 9.03824 18.5555 -17.3627 -30.7114 24.0734 -64.5847 0.3335 9.38107 -0.0273633 -27.2724 1.71013 -3.00511 0.401425 -8.47371 -6.12452 0.0 0.0 0.0 -21.3673 18.3865 21.9007 3.95879 -0.183149 -0.579677 3.10702 12.9713 -0.452628 7.29587 -0.0 -0.0 -0.0 0.0 -0.0 30.9831 37.3859 -10.3176 -11.6667 -0.301859 -1.76192 41.5347 -15.8447 5.08184 -35.6542 0.0 0.0 0.0 0.0 0.0 
2745.66 754.826 -1481.91 3.31261 53.494 -11.0964 -1.30124 0.678795 4.61863 -1.28946 0.38385 4.65236 -1.24801 -0.704317 4.61481 -1.27772 0.0325206 4.66802 -0.787082 21.277 -1.86005 0.48355 39.7593 0.0954174 -0.0 0.0 -0.0 7.1389 10.7976 13.592 -5.95314 -46.1931 7.52208 0.716347 -19.5376 0.123335 -34.1245 -2.34907 3.60755 -11.5966 33.2925 -58.1448 -0.0 0.0 -0.0 9.0734 18.7178 -17.4296 -30.5762 23.6946 -64.4833 0.330158 9.28871 -0.0268211 -26.9959 1.6859 -2.97923 0.481961 -8.65756 -6.7207 0.0 0.0 0.0 -21.8675 18.7882 22.503 4.06306 -0.188514 -0.594772 3.2782 13.5649 -0.477782 7.20053 -0.0 -0.0 -0.0 0.0 -0.0 29.9989 37.3947 -9.80022 -5.04911 -0.174709 -0.754944 41.0974 -15.7188 5.04151 -35.3662 0.0 0.0 0.0 0.0 0.0 
2728.57 749.586 -1478.19 2.04058 54.377 -10.3647 -1.31774 0.697253 4.76678 -1.30518 0.392875 4.80138 -1.26128 -0.731247 4.76169 -1.2929 0.0290438 4.8173 -0.142553 21.0309 -2.48989 1.27552 39.6644 -0.857046 -0.0 0.0 -0.0 7.86538 10.9657 14.8747 -4.47944 -47.3805 7.54776 0.743598 -20.2216 0.132601 -34.2204 -2.35851 3.61543 -11.78 33.6909 -59.3373 -0.0 0.0 -0.0 9.11647 18.8294 -17.5174 -30.4494 23.4418 -64.4272 0.328693 9.24823 -0.0265854 -26.7701 1.6662 -2.95802 0.549129 -8.78203 -7.2064 0.0 0.0 0.0 -22.414 18.9879 23.0789 4.01638 -0.186109 -0.588015 3.38934 13.8892 -0.494101 7.12553 -0.0 -0.0 -0.0 0.0 -0.0 30.0544 37.2761 -10.2741 -0.013753 -0.000566309 -0.00203454 40.8145 -15.6231 5.01501 -35.1436 0.0 0.0 0.0 0.0 0.0 
2712.9 743.727 -1480.03 2.56227 55.0107 -10.6744 -1.34706 0.704122 4.8088 -1.33428 0.397067 4.84374 -1.28944 -0.73938 4.80351 -1.32162 0.0275934 4.85987 0.396785 20.7994 -3.04613 1.94088 39.5691 -1.69125 -0.0 0.0 -0.0 8.36957 11.3621 15.747 -3.33654 -48.0319 7.59066 0.763121 -20.7079 0.139427 -34.3051 -2.36687 3.62238 -11.8815 33.8382 -60.2329 -0.0 0.0 -0.0 9.12885 18.8725 -17.5419 -30.4181 23.2299 -64.3877 0.327432 9.21336 -0.0263831 -26.6051 1.65187 -2.94247 0.600447 -8.88457 -7.58036 0.0 0.0 0.0 -22.9713 19.1062 23.4776 3.94466 -0.182424 -0.577631 3.47009 14.1134 -0.505964 7.07288 -0.0 -0.0 -0.0 0.0 -0.0 30.1232 37.1858 -10.5222 3.56964 0.163372 0.52326 40.6165 -15.5544 4.99636 -34.9863 0.0 0.0 0.0 0.0 0.0 
